<svg width="701" height="701" viewBox="0 0 701 701" fill="none" xmlns="http://www.w3.org/2000/svg">
<path d="M208.844 301.833L350.11 220.273L371.405 257.157L230.139 338.717L208.844 301.833Z" fill="black"/>
<path d="M491.412 399.863L350.147 481.423L328.852 444.539L470.117 362.979L491.412 399.863Z" fill="black"/>
<path d="M328.815 257.157L470.08 338.717L491.375 301.833L350.11 220.273L328.815 257.157Z" fill="black"/>
<path d="M371.442 444.539L230.176 362.979L208.881 399.863L350.147 481.423L371.442 444.539Z" fill="black"/>
<path d="M448.785 301.832L590.051 220.272L611.346 257.156L470.08 338.717L448.785 301.832Z" fill="black"/>
<path d="M251.471 399.863L110.205 481.423L88.9102 444.539L230.176 362.979L251.471 399.863Z" fill="black"/>
<path d="M398.589 350.496C398.589 377.274 376.882 398.981 350.104 398.981C323.327 398.981 301.619 377.274 301.619 350.496C301.619 323.719 323.327 302.011 350.104 302.011C376.882 302.011 398.589 323.719 398.589 350.496Z" fill="black"/>
</svg>
