<svg width="33" height="33" viewBox="0 0 33 33" fill="none" xmlns="http://www.w3.org/2000/svg">
<path d="M16.7495 2.49091L18.6382 4.02039C19.3122 4.56626 20.1765 4.82005 21.0387 4.72525L23.4544 4.45965C23.8064 4.42095 24.1376 4.63374 24.2486 4.97002L25.0105 7.27777C25.2824 8.10142 25.8723 8.78219 26.6489 9.16857L28.8247 10.2512C29.1418 10.4089 29.3053 10.767 29.2169 11.1099L28.6102 13.4632C28.3937 14.3031 28.5219 15.1947 28.9663 15.9396L30.2114 18.0267C30.3928 18.3308 30.3368 18.7204 30.077 18.9611L28.2943 20.6129C27.6581 21.2024 27.2839 22.0218 27.255 22.8887L27.1741 25.3176C27.1623 25.6715 26.9046 25.969 26.5559 26.031L24.1632 26.4568C23.3093 26.6087 22.5515 27.0957 22.0585 27.8094L20.6773 29.809C20.476 30.1004 20.0984 30.2113 19.7715 30.075L17.5285 29.1395C16.7279 28.8057 15.8271 28.8057 15.0266 29.1395L12.7835 30.075C12.4567 30.2113 12.079 30.1004 11.8778 29.809L10.4965 27.8094C10.0036 27.0957 9.24578 26.6087 8.39182 26.4568L5.99913 26.031C5.65047 25.969 5.39272 25.6715 5.38093 25.3176L5.30003 22.8887C5.27116 22.0218 4.89696 21.2024 4.26071 20.6129L2.47803 18.9611C2.21826 18.7204 2.16224 18.3308 2.34368 18.0267L3.5888 15.9396C4.03319 15.1947 4.16139 14.3031 3.94486 13.4632L3.33817 11.1099C3.24976 10.767 3.41327 10.4089 3.73033 10.2512L5.90615 9.16857C6.68271 8.78219 7.27261 8.10142 7.54454 7.27777L8.30647 4.97002C8.41749 4.63374 8.74861 4.42095 9.10062 4.45965L11.5163 4.72525C12.3785 4.82005 13.2428 4.56626 13.9169 4.02039L15.8055 2.49091C16.0807 2.26804 16.4743 2.26804 16.7495 2.49091Z" stroke="#BE6CFF" stroke-width="2.5"/>
<path d="M21.7775 13.0005L14.7775 20.0002L11.2775 16.5006" stroke="#BE6CFF" stroke-width="2.5" stroke-linecap="round" stroke-linejoin="round"/>
</svg>
